# xmcd CD database file
#
# Track frame offsets:
#	182
#	20217
#	40137
#	62602
#
# Disc length: 1126 seconds
#
# Revision: 0
# Processed by: cddbd v1.5.1PL2 Copyright (c) Steve Scherf et al.
# Submitted via: CDex 1.51
#
DISCID=2f046404
DTITLE=Faith Evans - Never Gonna Let You Go (SingleCD)
DYEAR=1999
DGENRE=R&B
TTITLE0=Never Gonna Let You Go (Radio Mix)
TTITLE1=Never Gonna Let You Go (Instrumental)
TTITLE2=Never Knew Love Like This (Remix feat. Black Rob)
TTITLE3=Never Knew Love Like This (Remix Instrumental)
EXTD=YEAR: 1999
EXTT0=
EXTT1=
EXTT2=
EXTT3=
PLAYORDER=
